<svg width="570" height="441" viewBox="0 0 570 441" fill="none" xmlns="http://www.w3.org/2000/svg">
<g style="mix-blend-mode:multiply" opacity="0.2">
<path d="M295.134 440.354C289.955 440.354 283.769 438.998 275.532 435.926C253.671 427.595 231.254 402.574 207.585 376.114C194.552 361.583 181.102 346.553 167.582 334.237C147.841 311.984 114.372 296.65 81.9799 281.787C58.3116 270.937 35.964 260.668 18.6558 247.992L18.6211 247.964C5.62261 238.111 -0.459559 228.589 0.0270143 218.874C0.965406 199.915 26.9276 183.031 57.0256 163.491L59.9103 161.609C82.2232 147.05 110.236 127.564 150.795 98.4748L154.236 96.0945C190.521 70.9628 235.702 39.6866 294.23 20.7271C411.46 -23.198 514.057 10.8183 546.449 47.6856C580.231 90.7803 577.312 136.532 535.328 222.639C491.362 312.399 393.978 381.788 354.148 407.445C337.848 415.915 327.63 423.416 320.192 428.896C310.739 435.815 304.587 440.354 295.134 440.354ZM21.7143 245.335C38.6401 257.734 60.7792 267.892 84.2042 278.659C116.978 293.688 150.9 309.243 171.058 331.995C184.612 344.312 198.132 359.424 211.2 374.01C234.555 400.083 256.625 424.716 277.409 432.66C297.949 440.271 302.78 436.729 317.134 426.211C324.711 420.648 335.102 413.009 351.507 404.484C390.85 379.103 487.539 310.24 531.122 221.282C572.516 136.421 575.539 91.4999 542.696 49.623C511.242 13.8629 411.043 -19.1293 296.038 23.9654C238.101 42.7589 193.231 73.8136 157.19 98.7516L153.784 101.132C113.19 130.249 85.1426 149.762 62.7602 164.349L59.8756 166.231C30.6116 185.218 5.37933 201.631 4.51045 218.958C4.09338 227.621 9.72372 236.229 21.7143 245.335Z" fill="#CCCCCC"/>
<path d="M288.388 415.278C281.229 415.278 273.652 413.451 263.225 410.213L263.017 410.157C242.998 402.158 227.15 382.867 210.398 362.468C198.963 348.518 187.111 334.126 172.862 321.588C152.773 301.244 127.506 285.412 103.108 270.106C86.7036 259.838 71.2027 250.123 57.6829 239.384L57.4396 239.162C29.9135 209.298 49.6544 196.123 85.4524 172.181C89.3449 169.58 93.4461 166.839 97.721 163.906C106.132 158.951 115.099 153.416 124.622 147.548C166.919 121.447 224.89 85.715 306.67 56.7084C406.626 26.2348 483.852 48.2666 516.105 83.6115C548.427 120.451 535.88 164.791 499.561 238.858C459.766 313.755 387.128 362.247 348.098 388.292L343.753 391.198C314.733 408.358 302.29 415.278 288.388 415.278ZM264.963 406.891C293.428 415.693 298.259 413.59 340.973 388.402L345.213 385.579C383.931 359.728 456.013 311.596 495.391 237.557C531.119 164.736 543.596 121.226 512.455 85.7427C481.245 51.5326 406.035 30.3035 308.407 60.0574C227.219 88.8426 169.525 124.437 127.367 150.399C117.844 156.266 108.877 161.802 100.536 166.729C96.3655 169.58 92.2644 172.32 88.3718 174.949C52.5391 198.918 36.1346 209.879 60.9847 236.948C74.2959 247.493 89.6578 257.098 105.888 267.283C130.53 282.7 155.971 298.67 176.303 319.263C190.691 331.912 202.647 346.443 214.186 360.503C230.556 380.431 246.056 399.28 264.963 406.891Z" fill="#CCCCCC"/>
<path d="M282.56 394.354C273.419 394.354 264.939 391.753 254.373 387.324C236.717 378.855 222.537 361.334 207.523 342.818C198.626 331.802 189.381 320.426 178.815 309.991C164.044 293.606 146.528 279.601 129.636 266.039C115.769 254.912 102.666 244.422 92.344 233.6L92.205 233.434C71.2824 205.368 92.9001 192.277 132.174 168.501L132.625 168.224L139.889 164.266C181.248 141.819 237.899 111.069 315.508 88.7882C407.122 65.511 465.442 89.2311 487.581 116.577C511.249 145.75 505.445 184.914 467.562 251.757C439.966 298.339 394.923 340.216 333.719 376.225C310.051 389.012 295.628 394.354 282.56 394.354ZM95.9934 231.469C106.142 242.069 119.106 252.476 132.834 263.465C149.864 277.11 167.485 291.253 182.395 307.777C193.065 318.267 202.344 329.754 211.311 340.853C226.013 359.037 239.915 376.197 256.597 384.196C280.648 394.327 292.639 394.133 331.113 373.291C391.656 337.642 436.213 296.235 463.461 250.234C500.614 184.665 506.522 146.497 483.793 118.487C460.819 90.1168 400.345 70.9635 316.933 92.1373C239.95 114.252 183.577 144.836 142.426 167.2L134.884 171.324C95.333 195.266 77.2255 206.226 95.9934 231.469Z" fill="#CCCCCC"/>
<path d="M279.295 375.312C269.077 375.312 259.484 372.517 248.78 367.036L248.71 367.009C232.584 358.207 219.585 341.656 205.822 324.163C199.462 316.053 192.858 307.695 185.699 299.723C176.141 288.043 165.541 277.249 155.288 266.842C142.707 254.054 130.786 241.959 123 230.224C109.411 205.452 129.291 192.498 163.629 174.037C199.01 156.6 253.68 131.745 320.688 117.076C384.673 106.586 432.6 115 455.782 140.74C480.806 168.474 474.584 212.454 438.717 261.417C401.147 319.043 341.75 352.837 324.442 361.805C306.022 370.884 292.154 375.312 279.295 375.312ZM251.212 364.019C271.231 374.233 286.941 376.059 322.009 358.761C339.039 349.931 397.671 316.579 434.755 259.673C469.719 211.928 476.044 169.359 452.098 142.844C429.993 118.321 383.699 110.433 321.696 120.591C255.383 135.122 201.095 159.783 166.027 177.082C130.681 196.069 115.285 207.361 126.997 228.701C134.539 240.022 146.321 251.979 158.798 264.655C169.121 275.145 179.79 285.967 189.383 297.73C196.577 305.702 203.181 314.143 209.576 322.281C223.13 339.414 235.885 355.633 251.212 364.019Z" fill="#CCCCCC"/>
<path d="M277.137 357.929C266.294 357.929 256.319 354.967 245.962 349.044L245.684 348.85C206.028 316.882 159.143 243.673 150.142 229.336L150.003 229.004C142.982 208.467 158.83 196.399 190.492 181.315C220.312 167.974 267.406 150.371 322.597 142.15C373.409 135.784 411.466 144.364 429.817 166.313C450.184 190.697 443.963 227.758 412.787 268.002C385.33 306.807 344.875 334.734 316.167 347.909C301.153 354.607 288.641 357.929 277.137 357.929ZM248.742 346.221C268.587 357.486 286.278 357.098 313.908 344.781C342.095 331.856 381.82 304.399 408.895 266.176C438.715 227.675 445.109 191.113 426.064 168.306C408.755 147.575 372.262 139.521 323.362 145.693C268.831 153.83 222.259 171.267 192.752 184.442C162.445 198.863 148.16 209.574 154.277 227.925C180.135 269.11 218.47 321.753 248.742 346.221Z" fill="#CCCCCC"/>
<path d="M275.551 341.905C263.942 341.905 253.898 338.832 246.287 332.881C215.841 309.383 184.144 259.811 174.795 230.002C173.266 223.11 175.455 216.384 181.225 209.963C199.019 190.173 251.743 173.096 322.296 164.294C362.091 161.222 391.772 169.719 405.952 188.236C422.009 209.216 416.24 239.745 390.139 271.962C356.183 312.732 315.554 338.749 281.459 341.628C279.443 341.822 277.462 341.905 275.551 341.905ZM337.797 167.256C333.001 167.256 328.031 167.45 322.887 167.865C253.655 176.5 202.008 193.024 184.944 212.067C179.869 217.713 177.958 223.498 179.244 229.282C188.419 258.483 219.56 307.252 249.484 330.335C257.374 336.48 268.287 339.164 281.007 338.085C313.781 335.317 353.194 309.881 386.385 270.025C411.131 239.468 417.039 209.603 402.129 190.118C390.695 175.199 368.139 167.256 337.797 167.256Z" fill="#CCCCCC"/>
<path d="M276.479 326.68C265.705 326.68 256.217 323.912 248.814 318.543C222.4 299.473 197.967 259.146 196.577 232.27V232.215C196.403 207.443 248.119 187.1 319.506 183.889C349.917 183.308 372.473 191.39 383.073 206.723C395.238 224.299 390.233 248.683 369.345 273.649C343.522 303.984 311.199 323.691 282.839 326.376C280.65 326.569 278.53 326.68 276.479 326.68ZM201.095 232.16C202.485 258.232 226.188 297.369 251.872 315.886C259.692 321.56 270.188 323.94 282.283 322.805C309.357 320.231 340.498 301.106 365.591 271.628C385.506 247.825 390.441 224.769 379.111 208.412C369.345 194.324 348.283 186.85 319.68 187.432C251.976 190.504 200.956 209.74 201.095 232.16Z" fill="#CCCCCC"/>
<path d="M277.255 312.261C267.836 312.261 259.426 309.963 252.648 305.452C228.841 289.703 211.915 257.818 215.634 235.786C219.666 214.64 263.005 199.472 314.165 201.216C336.617 202.24 353.161 209.603 360.807 221.919C369.565 236.035 365.568 254.773 349.789 273.29C331.161 294.962 306.589 309.382 284.067 311.873C281.739 312.15 279.479 312.261 277.255 312.261ZM306.067 204.676C260.677 204.676 223.593 218.045 220.118 236.312C216.642 256.877 233.185 287.904 255.533 302.712C262.901 307.583 272.528 309.521 283.442 308.33C304.747 305.978 328.137 292.111 346.071 271.269C360.911 253.86 364.804 236.45 356.775 223.497C349.894 212.398 334.671 205.755 313.957 204.787C311.315 204.731 308.674 204.676 306.067 204.676Z" fill="#CCCCCC"/>
<path d="M279.382 298.476C271.805 298.476 264.923 296.733 259.154 293.328C239.17 281.51 227.944 257.734 234.13 240.325C240.421 223.109 273.091 212.757 308.437 216.743C324.112 218.597 335.616 224.797 340.829 234.208C346.737 244.864 343.818 258.371 332.835 271.269C320.219 285.993 303.293 295.736 286.402 297.978C284.039 298.31 281.675 298.476 279.382 298.476ZM238.475 241.321C232.844 257.125 243.549 279.627 261.83 290.45C268.329 294.297 276.566 295.681 285.672 294.463C301.138 292.387 317.404 282.977 329.151 269.276C339.23 257.43 341.976 245.196 336.728 235.675C332.175 227.427 321.887 221.974 307.811 220.313C275.176 216.604 244.07 226.043 238.475 241.321Z" fill="#CCCCCC"/>
<path d="M281.127 285.136C275.879 285.136 270.805 284.057 266.356 281.732C251.481 274.065 244.53 257.79 250.82 245.474C257.146 233.212 279.702 226.597 301.146 230.749C311.051 232.659 318.28 237.336 321.512 243.868C325.057 251.065 323.25 259.811 316.577 267.838C307.367 278.853 293.708 285.136 281.127 285.136ZM268.789 278.743C281.613 285.358 301.354 279.601 312.824 265.872C318.663 258.842 320.331 251.286 317.307 245.197C314.631 239.772 308.514 235.869 300.068 234.236C280.71 230.5 260.482 236.146 254.991 246.83C249.465 257.652 255.651 271.962 268.789 278.743Z" fill="#CCCCCC"/>
<path d="M282.435 272.044C279.585 272.044 276.805 271.518 274.267 270.411C265.579 266.619 262.068 257.901 266.482 250.954C270.827 244.089 282.748 240.796 293 243.619C297.936 244.975 301.55 247.688 303.114 251.286C304.783 255.078 303.983 259.506 300.89 263.409C296.476 268.917 289.351 272.044 282.435 272.044ZM285.215 246.193C278.925 246.193 272.982 248.601 270.444 252.587C267.143 257.818 269.784 264.405 276.387 267.256C282.956 270.135 292.236 267.533 297.032 261.471C299.43 258.454 300.056 255.271 298.805 252.448C297.692 249.902 295.086 247.964 291.471 246.968C289.421 246.442 287.301 246.193 285.215 246.193Z" fill="#CCCCCC"/>
</g>
</svg>
